<?xml version="1.0" standalone="no"?>
<!DOCTYPE svg PUBLIC "-//W3C//DTD SVG 20010904//EN"
 "http://www.w3.org/TR/2001/REC-SVG-20010904/DTD/svg10.dtd">
<svg version="1.0" xmlns="http://www.w3.org/2000/svg"
 width="3000.000000pt" height="2000.000000pt" viewBox="0 0 3000.000000 2000.000000"
 preserveAspectRatio="xMidYMid meet">
<metadata>
Created by potrace 1.15, written by Peter Selinger 2001-2017
</metadata>
<g transform="translate(0.000000,2000.000000) scale(0.100000,-0.100000)"
fill="#000000" stroke="none">
<path d="M14934 15360 c-892 -41 -1682 -290 -2369 -745 -482 -319 -851 -729
-1094 -1215 -193 -388 -278 -786 -250 -1178 24 -343 130 -607 343 -855 93
-107 195 -189 304 -244 88 -44 99 -47 188 -51 108 -5 163 10 221 61 52 46 76
101 76 174 -1 121 -48 177 -268 321 -215 140 -262 173 -310 218 -90 87 -173
243 -212 400 -23 94 -23 343 0 474 83 461 330 906 716 1290 270 268 561 470
954 660 459 222 908 348 1410 396 216 20 627 15 784 -10 463 -75 771 -297 858
-621 23 -83 30 -243 16 -348 -55 -414 -348 -800 -752 -991 -240 -114 -515
-174 -877 -192 -104 -5 -142 -4 -142 4 0 27 285 1060 332 1202 41 125 147 422
184 514 6 16 4 18 -17 13 -176 -44 -714 -128 -964 -152 -280 -26 -252 -18
-269 -78 -8 -29 -20 -71 -26 -95 -6 -24 -13 -49 -16 -56 -4 -10 6 -11 48 -5
101 17 197 -19 245 -90 27 -40 30 -111 9 -211 -26 -120 -795 -2794 -852 -2961
-98 -288 -226 -525 -334 -622 -136 -122 -383 -205 -666 -224 l-92 -6 -36 -120
c-20 -66 -35 -122 -33 -124 2 -2 62 6 133 16 255 39 394 46 869 46 296 -1 573
-7 775 -18 173 -9 367 -19 431 -22 l116 -6 6 83 c4 46 7 106 7 134 l0 51 -147
6 c-82 3 -202 13 -268 22 -131 17 -394 63 -407 71 -5 3 19 38 54 77 221 257
358 606 674 1720 l158 557 165 0 c431 0 797 -44 955 -114 32 -14 63 -26 68
-26 5 0 42 27 81 61 92 78 252 184 367 243 50 26 90 48 90 50 0 8 -170 49
-285 71 l-120 22 70 23 c526 173 883 440 1068 797 143 278 167 608 59 845
-117 259 -405 497 -746 617 -321 114 -781 164 -1282 141z"/>
<path d="M17270 13093 c-250 -19 -551 -100 -815 -219 -594 -269 -1087 -708
-1455 -1297 -358 -574 -532 -1170 -506 -1732 16 -327 70 -556 191 -800 82
-164 173 -293 295 -415 398 -397 1034 -574 1605 -445 323 73 685 253 943 469
205 173 412 432 412 517 0 77 -102 125 -180 84 -15 -8 -75 -70 -133 -138 -123
-144 -267 -283 -386 -372 -732 -546 -1628 -302 -1914 522 -188 539 -127 1319
155 1983 252 592 612 1055 1028 1322 325 209 627 309 935 309 197 1 342 -36
489 -123 284 -168 371 -477 319 -1130 l-6 -78 105 0 c120 0 118 -1 118 83 0
68 25 279 51 437 27 161 97 440 153 605 25 71 43 131 42 133 -2 1 -84 28 -182
58 -381 117 -617 184 -701 198 -179 30 -397 42 -563 29z"/>
<path d="M16550 12488 c-231 -157 -315 -227 -436 -366 l-72 -82 20 -63 c30
-91 37 -329 13 -469 -70 -424 -334 -824 -708 -1073 -12 -8 -16 -47 -21 -197
-5 -138 -4 -188 4 -188 33 0 307 112 465 190 504 248 824 547 1021 955 112
230 149 408 141 669 -6 224 -43 348 -149 513 -50 76 -144 183 -162 183 -6 0
-58 -32 -116 -72z"/>
<path d="M15633 7586 c-269 -51 -474 -199 -584 -421 -60 -122 -81 -216 -81
-365 0 -101 5 -144 26 -222 85 -333 351 -547 743 -599 121 -16 416 -7 512 16
115 27 122 40 157 269 11 75 12 101 3 112 -17 20 -34 2 -49 -51 -17 -60 -69
-132 -121 -167 -60 -40 -128 -58 -249 -64 -133 -8 -224 11 -340 67 -68 34
-102 59 -171 128 -97 98 -156 199 -191 328 -28 106 -30 322 -4 438 49 219 175
362 371 421 79 24 290 24 386 1 189 -46 275 -123 302 -272 13 -72 31 -93 46
-53 4 13 11 105 14 205 6 182 6 183 -16 188 -171 37 -266 47 -467 51 -153 2
-236 -1 -287 -10z"/>
<path d="M7603 7572 c-26 -4 -31 -27 -7 -36 9 -3 37 -6 62 -6 58 0 109 -29
119 -67 11 -38 10 -1265 0 -1327 -12 -66 -43 -96 -99 -96 -49 0 -78 -14 -63
-29 6 -5 161 -11 380 -13 l370 -3 80 27 c98 34 156 69 218 137 156 168 150
417 -14 581 -57 58 -148 118 -211 140 l-36 13 69 67 c194 188 183 452 -23 556
-97 49 -141 54 -494 57 -181 1 -339 1 -351 -1z m625 -111 c170 -88 216 -387
78 -508 -46 -41 -61 -45 -171 -41 l-90 3 -3 260 c-1 143 0 270 3 283 5 20 11
22 76 22 49 0 81 -6 107 -19z m-61 -651 c94 -10 142 -32 201 -90 96 -92 143
-208 145 -355 1 -80 -2 -97 -26 -147 -33 -67 -94 -113 -164 -124 -65 -10 -173
0 -210 20 -67 34 -68 37 -71 373 -2 167 -1 310 2 318 6 18 15 18 123 5z"/>
<path d="M11778 7353 c-9 -10 -131 -286 -272 -613 -142 -327 -268 -612 -282
-632 -37 -57 -70 -70 -183 -69 -54 0 -109 5 -123 10 -54 20 -53 11 -53 628 0
564 0 573 21 593 12 13 39 23 72 27 41 5 52 9 50 22 -3 14 -34 16 -278 16
-237 0 -275 -2 -275 -15 0 -10 15 -17 46 -21 67 -10 87 -24 99 -71 8 -29 11
-206 8 -582 -3 -569 -3 -572 -49 -596 -26 -15 -144 -15 -196 -1 -90 25 -204
136 -461 450 l-101 123 88 87 c108 107 154 189 159 290 7 122 -61 238 -168
287 -97 45 -135 49 -515 49 -322 0 -360 -2 -363 -16 -2 -13 9 -17 56 -21 70
-7 98 -22 112 -62 13 -36 13 -992 1 -1089 -11 -85 -29 -107 -86 -107 -40 0
-73 -19 -58 -33 3 -4 136 -7 295 -7 248 0 288 2 288 15 0 16 -18 21 -94 28
-26 3 -55 12 -64 20 -23 24 -31 95 -31 300 l-1 187 86 0 c47 0 94 -5 104 -10
11 -6 62 -70 114 -144 187 -263 260 -340 356 -377 48 -18 83 -19 743 -19 382
0 697 3 700 7 15 14 -18 33 -58 33 -85 0 -85 43 2 256 l58 144 230 -2 229 -3
75 -188 75 -189 -23 -17 c-52 -39 -30 -41 480 -41 411 0 489 2 489 14 0 17
-22 26 -65 26 -55 0 -85 17 -102 57 -12 29 -17 97 -24 278 -4 132 -10 318 -14
414 l-6 173 288 -289 c377 -379 706 -689 738 -695 49 -10 49 -5 57 461 5 240
11 520 16 623 9 217 12 224 98 236 34 5 49 12 49 22 0 13 -35 15 -245 15 -225
0 -245 -1 -248 -17 -3 -15 4 -18 41 -18 24 0 58 -5 76 -11 58 -20 61 -35 71
-407 5 -185 10 -382 10 -437 l0 -100 -513 513 c-290 290 -520 512 -530 512
-10 0 -21 -10 -26 -22 -4 -13 -12 -297 -18 -633 -6 -448 -12 -616 -21 -632
-20 -36 -48 -44 -142 -44 -108 0 -136 13 -186 88 -19 29 -148 315 -285 635
-138 321 -256 589 -261 596 -15 17 -42 15 -60 -5z m-2111 -143 c100 -50 145
-134 147 -270 1 -102 -20 -170 -69 -228 -51 -58 -105 -76 -208 -69 -130 9
-117 -24 -117 301 0 156 3 286 7 289 3 4 45 7 93 7 77 0 94 -4 147 -30z m2182
-433 l89 -227 -185 0 c-144 0 -184 3 -180 13 93 235 180 447 183 444 2 -2 44
-106 93 -230z"/>
<path d="M18794 7353 c-4 -10 -11 -270 -16 -578 -4 -308 -11 -589 -14 -624 -7
-80 -33 -111 -93 -111 -49 0 -71 -8 -71 -26 0 -12 44 -14 260 -14 216 0 260 2
260 14 0 17 -22 26 -65 26 -55 0 -85 17 -101 57 -12 28 -18 103 -25 322 -4
157 -10 344 -13 414 l-5 129 262 -265 c331 -334 721 -703 757 -715 55 -20 54
-24 63 380 4 205 10 489 15 630 8 295 7 293 98 306 34 5 49 12 49 22 0 13 -35
15 -245 15 -211 0 -245 -2 -245 -15 0 -11 15 -17 55 -21 65 -7 95 -21 111 -52
12 -22 27 -424 28 -750 l1 -148 -511 510 c-292 292 -519 511 -529 511 -10 0
-21 -8 -26 -17z"/>
<path d="M20920 7346 c-164 -35 -278 -93 -380 -196 -130 -130 -190 -280 -190
-475 0 -330 197 -576 533 -664 209 -55 568 -50 665 9 35 22 46 51 67 189 16
101 8 144 -21 120 -8 -6 -14 -18 -14 -26 0 -28 -50 -111 -86 -143 -59 -51 -96
-62 -229 -68 -147 -6 -209 6 -317 60 -150 75 -260 214 -303 383 -19 75 -20
277 -1 366 19 89 67 181 125 239 89 89 183 120 363 120 176 0 288 -31 356 -99
43 -44 60 -79 70 -143 5 -38 12 -54 24 -56 23 -4 26 12 33 195 l5 153 -22 4
c-193 42 -552 58 -678 32z"/>
<path d="M16657 7333 c-19 -18 -3 -31 44 -35 73 -7 102 -33 112 -99 14 -88 2
-1068 -13 -1107 -14 -38 -36 -52 -82 -52 -37 0 -63 -13 -55 -27 9 -14 886 -27
920 -14 30 12 42 44 57 160 18 133 -6 177 -40 72 -21 -62 -50 -96 -99 -113
-45 -16 -289 -15 -349 1 -80 22 -77 -2 -80 576 -2 348 0 522 8 547 9 31 17 39
48 48 20 5 54 10 75 10 31 0 38 3 35 18 -3 16 -26 17 -289 20 -157 1 -288 -1
-292 -5z"/>
<path d="M17817 7333 c-18 -17 -5 -33 27 -33 48 0 94 -19 109 -44 15 -26 22
-855 9 -1050 -8 -117 -11 -131 -31 -148 -13 -10 -39 -18 -60 -18 -42 0 -67
-13 -57 -29 5 -8 98 -11 307 -11 257 0 299 2 299 15 0 16 -20 22 -98 28 -38 3
-60 11 -75 26 -22 21 -22 23 -25 579 -2 381 0 569 8 594 9 31 17 39 48 48 20
5 50 10 65 10 22 0 28 4 25 18 -3 16 -25 17 -274 20 -149 1 -273 -1 -277 -5z"/>
<path d="M21665 7330 c-10 -15 4 -30 28 -30 38 -1 101 -35 135 -74 70 -80 376
-557 404 -629 15 -40 18 -79 18 -261 0 -268 -9 -296 -89 -296 -39 0 -61 -9
-61 -26 0 -12 50 -14 298 -14 164 0 302 3 305 7 17 16 -19 33 -69 33 -29 0
-64 5 -78 11 -44 20 -49 54 -50 303 l-1 232 33 63 c83 159 301 499 363 566 49
53 83 73 142 83 27 5 42 13 42 22 0 13 -32 15 -215 15 -184 0 -215 -2 -215
-15 0 -8 9 -16 20 -18 53 -10 59 -55 19 -135 -29 -56 -253 -447 -264 -460 -6
-7 -256 408 -314 520 -24 47 -20 60 20 73 19 7 33 17 31 23 -5 16 -493 22
-502 7z"/>
</g>
</svg>
